<svg width="29" height="22" viewBox="0 0 29 22" fill="none" xmlns="http://www.w3.org/2000/svg">
<g id="send fast">
<path id="Combo shape" fill-rule="evenodd" clip-rule="evenodd" d="M11.6047 0.680357L26.5789 8.16292C28.9182 9.33183 28.9182 12.668 26.5789 13.8369L11.6047 21.3195C8.94144 22.6503 6.07578 19.9136 7.28511 17.1943L9.46693 12.2881C9.50902 12.1935 9.54625 12.0973 9.57863 11.9999L15 11.9999C15.5523 11.9999 16 11.5522 16 10.9999C16 10.4476 15.5523 9.99992 15 9.99992L9.57863 9.99992C9.54625 9.90254 9.50902 9.80635 9.46693 9.7117L7.28511 4.80558C6.07578 2.08624 8.94145 -0.65047 11.6047 0.680357ZM0.666687 8.33325C0.666687 7.78097 1.1144 7.33325 1.66669 7.33325H4.33335C4.88564 7.33325 5.33335 7.78097 5.33335 8.33325C5.33335 8.88554 4.88564 9.33325 4.33335 9.33325H1.66669C1.1144 9.33325 0.666687 8.88554 0.666687 8.33325ZM1.66669 12.6666C1.1144 12.6666 0.666687 13.1143 0.666687 13.6666C0.666687 14.2189 1.1144 14.6666 1.66669 14.6666H4.33335C4.88564 14.6666 5.33335 14.2189 5.33335 13.6666C5.33335 13.1143 4.88564 12.6666 4.33335 12.6666H1.66669Z" fill="#A6A39D"/>
</g>
</svg>
